<?xml version="1.0" encoding="UTF-8"?>
<svg version="1.1" xmlns="http://www.w3.org/2000/svg" width="595" height="400">
<path d="M0 0 C4.51391794 0.84919962 5.73445833 2.84752705 8.4375 6.5625 C9.32325409 7.75819292 10.2113877 8.95212582 11.1015625 10.14453125 C11.80587402 11.09126709 11.80587402 11.09126709 12.52441406 12.05712891 C15.03260999 15.35961454 17.67760892 18.54840198 20.3125 21.75 C25.35298837 27.90754954 30.24257978 34.1634264 35.05175781 40.50292969 C38.42280584 44.94575663 41.83604607 49.35117862 45.28393555 53.73461914 C72.37326668 88.23865532 99.10293849 127.80362986 106 172 C106.19529297 173.13115234 106.19529297 173.13115234 106.39453125 174.28515625 C109.13722986 193.26463063 106.35393378 213.03481668 100 231 C108.06012061 225.69698033 116.05446998 220.31366585 123.9375 214.75 C124.62191162 214.26756836 125.30632324 213.78513672 126.01147461 213.28808594 C130.15895376 210.34863481 134.22618048 207.32735322 138.24047852 204.20800781 C142.90267989 201.00715137 148.58942266 201.57284916 154 202 C157.125 203.125 157.125 203.125 159 205 C160.0625 207.8125 160.0625 207.8125 160 211 C157.31826431 215.61819092 154.05410045 219.20069825 150.25 222.875 C149.74339844 223.37257812 149.23679687 223.87015625 148.71484375 224.3828125 C147.48114693 225.59323202 146.24122216 226.79729853 145 228 C149.9017901 224.51218781 154.41274733 220.78709255 158.8125 216.6875 C163.40186049 212.41449837 168.11696789 208.38523848 173.01171875 204.4609375 C175.28797132 202.58637656 177.50491764 200.68512178 179.70703125 198.7265625 C197.47897729 182.92977141 197.47897729 182.92977141 210.4375 182.75 C212.10619141 182.71132813 212.10619141 182.71132813 213.80859375 182.671875 C217.36791107 183.03782684 219.16291451 183.85842577 222 186 C224 189 224 189 223.91015625 191.4140625 C222.7369184 194.74746791 221.12600393 196.10105928 218.4375 198.375 C217.52355469 199.16003906 216.60960937 199.94507813 215.66796875 200.75390625 C214.78753906 201.49511719 213.90710938 202.23632812 213 203 C211.74778204 204.10165067 210.4976024 205.20562499 209.25 206.3125 C203.20366885 211.58430113 197.09601982 216.78584821 191 222 C193.83855302 220.674429 196.21053919 219.18272156 198.66015625 217.234375 C199.36221191 216.68056152 200.06426758 216.12674805 200.78759766 215.55615234 C201.91367432 214.66210693 201.91367432 214.66210693 203.0625 213.75 C209.6929176 208.54729509 216.36363963 203.4066477 223.125 198.375 C223.89336182 197.79588867 224.66172363 197.21677734 225.45336914 196.62011719 C232.37294381 191.49919489 238.24064707 187.41343368 247.125 187.5625 C248.86136719 187.56443359 248.86136719 187.56443359 250.6328125 187.56640625 C254.36851189 188.04745339 256.80239688 189.03046185 260 191 C262 194 262 194 261.9375 197.3125 C260.17531665 204.24375452 255.15563209 207.94571076 249.4375 211.8125 C248.20352336 212.66927279 246.97046882 213.52737497 245.73828125 214.38671875 C245.11904785 214.81645996 244.49981445 215.24620117 243.86181641 215.68896484 C239.15301801 219.00475915 234.5926155 222.52639741 230 226 C239.1147023 220.79482788 247.95170413 215.24768533 256.75170898 209.52685547 C258.38609373 208.46570208 260.02308614 207.4085684 261.66015625 206.3515625 C263.09307007 205.42077881 263.09307007 205.42077881 264.55493164 204.47119141 C268.70491292 201.97415824 272.04084881 201.81097957 276.8125 201.75 C278.01519531 201.72421875 279.21789062 201.6984375 280.45703125 201.671875 C285.25510883 202.11623941 288.59089516 203.59089516 292 207 C292.57062211 210.0573332 292.5036475 212.93525139 292 216 C290.0625 218.5625 290.0625 218.5625 287 221 C285.68536517 222.20601034 284.37312243 223.41463041 283.0625 224.625 C278.60090095 228.57351516 273.93115384 232.21407413 269.22485352 235.86181641 C264.83772999 239.28392622 260.71816244 242.91748196 256.625 246.6875 C253.51450569 249.42769737 250.27779379 251.96457132 247 254.5 C241.91514635 258.4337334 237.08892467 262.53904151 232.3515625 266.890625 C229.22891937 269.69166701 225.96159499 272.28017536 222.6640625 274.87109375 C220.6725029 276.46258933 218.71617679 278.07345326 216.7734375 279.72265625 C216.22929199 280.18357666 215.68514648 280.64449707 215.12451172 281.11938477 C213.56969288 282.44077047 212.01911873 283.76714583 210.46875 285.09375 C208 287 208 287 206 287 C206.34933594 287.59425781 206.69867188 288.18851562 207.05859375 288.80078125 C211.46965249 296.83565595 213.21494403 304.14775966 211 313.1875 C208.45686856 320.37213141 203.98430757 325.20843675 197.3125 328.8125 C187.68873954 332.98852632 178.82509805 334.24090899 168.37988281 334.05737305 C154.46618624 333.81396843 144.51853696 334.61865446 133.89208984 344.33935547 C130.34636816 347.45135532 126.43525367 350.06522383 122.5625 352.75 C121.32294556 353.62277588 121.32294556 353.62277588 120.05834961 354.51318359 C95.79206328 371.43951098 69.18786226 387.04996255 40.4375 394.8125 C39.43323975 395.08658691 39.43323975 395.08658691 38.40869141 395.36621094 C35.95062609 395.98458496 33.4849203 396.49921835 31 397 C29.76403076 397.26039063 28.52806152 397.52078125 27.25463867 397.7890625 C13.41184279 400.46555637 -0.4427187 400.462516 -14.49438477 400.39111328 C-17.86336198 400.37414263 -21.23162164 400.38411705 -24.60057354 400.40143013 C-41.94217994 400.47698146 -58.83728899 399.4844552 -76 397 C-76.7991684 396.88658264 -77.59833679 396.77316528 -78.42172241 396.65631104 C-83.15002801 395.97548491 -87.85678286 395.19943836 -92.5625 394.375 C-93.27446533 394.25128021 -93.98643066 394.12756042 -94.7199707 394.00009155 C-117.94050508 389.94243776 -141.01186747 384.93634105 -163.80859375 378.94140625 C-165.27288315 378.55795799 -165.27288315 378.55795799 -166.76675415 378.16676331 C-171.4907901 376.92624082 -176.20753437 375.66477613 -180.91601562 374.36645508 C-182.63009835 373.90795452 -184.34428584 373.4498454 -186.05859375 372.9921875 C-187.19668739 372.66638451 -187.19668739 372.66638451 -188.35777283 372.33399963 C-195.78612244 370.3828252 -202.9885691 371.01127175 -210.25390625 373.48828125 C-211.56584961 373.93010742 -211.56584961 373.93010742 -212.90429688 374.38085938 C-213.78150391 374.68830078 -214.65871094 374.99574219 -215.5625 375.3125 C-216.44357422 375.60833984 -217.32464844 375.90417969 -218.23242188 376.20898438 C-223.33640252 377.95300138 -228.18740885 379.92684298 -233.00756836 382.35229492 C-235.49046298 383.15944104 -236.59432224 382.98326829 -239 382 C-240.7199707 380.63647461 -240.7199707 380.63647461 -242.42578125 378.90234375 C-243.3679248 377.95367432 -243.3679248 377.95367432 -244.32910156 376.98583984 C-244.98362305 376.3098877 -245.63814453 375.63393555 -246.3125 374.9375 C-247.32715332 373.90423584 -247.32715332 373.90423584 -248.36230469 372.85009766 C-252.74188811 368.36553149 -256.98304536 363.81302537 -261 359 C-262.20462891 357.61167969 -262.20462891 357.61167969 -263.43359375 356.1953125 C-274.17916928 343.77371462 -283.85233803 330.6317803 -292.78564453 316.85546875 C-294.04472525 314.93166226 -295.3304297 313.02773647 -296.62109375 311.125 C-297.45611929 309.87526057 -298.29076882 308.62526981 -299.125 307.375 C-299.51582764 306.80700684 -299.90665527 306.23901367 -300.30932617 305.65380859 C-302.57987106 302.2053895 -303.17814371 300.07320867 -303 296 C-302.32235596 295.72438232 -301.64471191 295.44876465 -300.9465332 295.16479492 C-284.63745194 288.49458556 -269.02775031 281.12561756 -253.57714844 272.67480469 C-232.13558732 260.9802017 -209.84933842 252.35954623 -185.9375 247.25 C-184.55739746 246.95186401 -184.55739746 246.95186401 -183.14941406 246.64770508 C-167.03051699 243.37994466 -150.96874312 242.62424325 -134.5625 242.6875 C-133.12058289 242.68973572 -133.12058289 242.68973572 -131.64953613 242.6920166 C-115.91825946 242.73569829 -100.56186111 243.54273353 -85 246 C-83.88044922 246.17644043 -82.76089844 246.35288086 -81.60742188 246.53466797 C-75.43222062 247.52356992 -69.26856691 248.56334035 -63.11523438 249.68041992 C-60.86215079 250.07469477 -60.86215079 250.07469477 -58 250 C-58.53109375 249.01902344 -59.0621875 248.03804687 -59.609375 247.02734375 C-73.69228354 220.38301349 -74.92972474 191.8376557 -66.17333984 163.22387695 C-60.13741503 144.79808068 -49.77213361 129.88084892 -37.5 115.0625 C-24.66086332 99.54093174 -14.71839394 83.41921686 -8.75 64.125 C-8.39832764 62.99505615 -8.39832764 62.99505615 -8.03955078 61.84228516 C-3.81239112 47.33399345 -2.40181794 32.4434104 -1.3125 17.4375 C-1.18241002 15.732363 -1.05155395 14.02728427 -0.91992188 12.32226562 C-0.60449569 8.21545794 -0.29927213 4.10801513 0 0 Z M186 225 C185.67 225.66 185.34 226.32 185 227 C185.99 226.67 186.98 226.34 188 226 C187.34 225.67 186.68 225.34 186 225 Z M227 227 C226.67 227.66 226.34 228.32 226 229 C226.99 228.67 227.98 228.34 229 228 C228.34 227.67 227.68 227.34 227 227 Z M224 229 C223.67 229.66 223.34 230.32 223 231 C223.99 230.67 224.98 230.34 226 230 C225.34 229.67 224.68 229.34 224 229 Z " fill="#FDC095" transform="translate(303,0)"/>
<path d="M0 0 C4.51391794 0.84919962 5.73445833 2.84752705 8.4375 6.5625 C9.32325409 7.75819292 10.2113877 8.95212582 11.1015625 10.14453125 C11.80587402 11.09126709 11.80587402 11.09126709 12.52441406 12.05712891 C15.03260999 15.35961454 17.67760892 18.54840198 20.3125 21.75 C25.35298837 27.90754954 30.24257978 34.1634264 35.05175781 40.50292969 C38.42280584 44.94575663 41.83604607 49.35117862 45.28393555 53.73461914 C72.37326668 88.23865532 99.10293849 127.80362986 106 172 C106.19529297 173.13115234 106.19529297 173.13115234 106.39453125 174.28515625 C109.12009573 193.14606246 106.64462601 214.16442493 100 232 C99.34 232.66 98.68 233.32 98 234 C97.31270025 235.58078943 96.62946344 237.16344819 95.96484375 238.75390625 C94.79919299 241.46746572 93.57952825 244.14452995 92.3125 246.8125 C91.87550781 247.74707031 91.43851563 248.68164062 90.98828125 249.64453125 C83.58955737 262.13078629 83.58955737 262.13078629 78.1856842 263.94465637 C74.82851276 264.31666247 71.5885084 264.38471223 68.2109375 264.34375 C66.96997818 264.36852417 65.72901886 264.39329834 64.45045471 264.41882324 C61.79521058 264.46587781 59.14687265 264.49571552 56.49191284 264.49462891 C52.35089937 264.49327402 48.21269221 264.55863128 44.07250977 264.63671875 C39.93109446 264.71197386 35.7898613 264.78377427 31.64802551 264.83154297 C21.1785364 264.95243691 10.73722039 265.29287257 0.28326416 265.87133789 C-1.98673305 265.99584428 -4.25706959 266.10727721 -6.52783203 266.21679688 C-19.59245227 266.74888335 -19.59245227 266.74888335 -32.2199707 269.81860352 C-34.25 270.5625 -34.25 270.5625 -38 271 C-41.2969254 269.28642131 -43.53446716 266.74045066 -46 264 C-46.65669678 263.27973633 -46.65669678 263.27973633 -47.32666016 262.54492188 C-60.36376002 248.13241023 -67.57500708 233.28055457 -71 214 C-71.13277344 213.26136719 -71.26554688 212.52273437 -71.40234375 211.76171875 C-75.71411336 183.2331609 -65.31136649 152.2672741 -48.77514648 129.30249023 C-45.17203714 124.42485739 -41.3670268 119.73185533 -37.5 115.0625 C-24.66086332 99.54093174 -14.71839394 83.41921686 -8.75 64.125 C-8.51555176 63.3717041 -8.28110352 62.6184082 -8.03955078 61.84228516 C-3.81239112 47.33399345 -2.40181794 32.4434104 -1.3125 17.4375 C-1.18241002 15.732363 -1.05155395 14.02728427 -0.91992188 12.32226562 C-0.60449569 8.21545794 -0.29927213 4.10801513 0 0 Z " fill="#F60B22" transform="translate(303,0)"/>
<path d="M0 0 C1.66869141 -0.03867188 1.66869141 -0.03867188 3.37109375 -0.078125 C6.93041107 0.28782684 8.72541451 1.10842577 11.5625 3.25 C13.5625 6.25 13.5625 6.25 13.47265625 8.6640625 C12.2994184 11.99746791 10.68850393 13.35105928 8 15.625 C6.62908203 16.80255859 6.62908203 16.80255859 5.23046875 18.00390625 C4.35003906 18.74511719 3.46960938 19.48632812 2.5625 20.25 C1.31028204 21.35165067 0.0601024 22.45562499 -1.1875 23.5625 C-7.23383115 28.83430113 -13.34148018 34.03584821 -19.4375 39.25 C-16.59894698 37.924429 -14.22696081 36.43272156 -11.77734375 34.484375 C-11.07528809 33.93056152 -10.37323242 33.37674805 -9.64990234 32.80615234 C-8.89918457 32.21012207 -8.1484668 31.6140918 -7.375 31 C-0.7445824 25.79729509 5.92613963 20.6566477 12.6875 15.625 C13.45586182 15.04588867 14.22422363 14.46677734 15.01586914 13.87011719 C21.93544381 8.74919489 27.80314707 4.66343368 36.6875 4.8125 C38.42386719 4.81443359 38.42386719 4.81443359 40.1953125 4.81640625 C43.93101189 5.29745339 46.36489688 6.28046185 49.5625 8.25 C51.5625 11.25 51.5625 11.25 51.5 14.5625 C49.73781665 21.49375452 44.71813209 25.19571076 39 29.0625 C37.76602336 29.91927279 36.53296882 30.77737497 35.30078125 31.63671875 C34.68154785 32.06645996 34.06231445 32.49620117 33.42431641 32.93896484 C28.71551801 36.25475915 24.1551155 39.77639741 19.5625 43.25 C28.6772023 38.04482788 37.51420413 32.49768533 46.31420898 26.77685547 C47.94859373 25.71570208 49.58558614 24.6585684 51.22265625 23.6015625 C52.65557007 22.67077881 52.65557007 22.67077881 54.11743164 21.72119141 C58.26741292 19.22415824 61.60334881 19.06097957 66.375 19 C67.57769531 18.97421875 68.78039062 18.9484375 70.01953125 18.921875 C74.81760883 19.36623941 78.15339516 20.84089516 81.5625 24.25 C82.13312211 27.3073332 82.0661475 30.18525139 81.5625 33.25 C79.625 35.8125 79.625 35.8125 76.5625 38.25 C75.24786517 39.45601034 73.93562243 40.66463041 72.625 41.875 C68.16340095 45.82351516 63.49365384 49.46407413 58.78735352 53.11181641 C54.40022999 56.53392622 50.28066244 60.16748196 46.1875 63.9375 C43.07700569 66.67769737 39.84029379 69.21457132 36.5625 71.75 C31.47764635 75.6837334 26.65142467 79.78904151 21.9140625 84.140625 C18.79141937 86.94166701 15.52409499 89.53017536 12.2265625 92.12109375 C10.2350029 93.71258933 8.27867679 95.32345326 6.3359375 96.97265625 C5.79179199 97.43357666 5.24764648 97.89449707 4.68701172 98.36938477 C3.13219288 99.69077047 1.58161873 101.01714583 0.03125 102.34375 C-2.4375 104.25 -2.4375 104.25 -4.4375 104.25 C-4.08816406 104.84425781 -3.73882812 105.43851562 -3.37890625 106.05078125 C0.15981353 112.49666458 1.40918681 117.91884213 1.5625 125.25 C0.5725 125.745 0.5725 125.745 -0.4375 126.25 C-0.54707031 125.60933594 -0.65664063 124.96867187 -0.76953125 124.30859375 C-2.45944509 115.08963287 -4.82385783 108.09835522 -12.4375 102.25 C-49.76559847 79.99159035 -99.76365757 82.87435472 -141.625 82.9375 C-142.46929565 82.93855618 -143.31359131 82.93961235 -144.18347168 82.94070053 C-163.34148441 82.97078666 -182.48356655 83.19554085 -201.62919617 83.91007996 C-210.57062888 84.2373839 -219.49181448 84.30057725 -228.4375 84.25 C-228.4375 83.92 -228.4375 83.59 -228.4375 83.25 C-224.18513578 82.99377889 -219.93222724 82.74947699 -215.67877197 82.51223755 C-214.05685095 82.42059104 -212.43506249 82.32656837 -210.81341553 82.23019409 C-199.43421805 81.55822035 -188.07808315 81.18183966 -176.67954826 81.07987976 C-172.54109612 81.03724677 -168.40300361 80.96607106 -164.26493549 80.8960762 C-160.14808174 80.83030874 -156.0343985 80.81287756 -151.91709805 80.82815838 C-148.68624871 80.82574736 -145.4567553 80.75241904 -142.2265625 80.69140625 C-141.05398392 80.71077744 -139.88140533 80.73014862 -138.67329407 80.75010681 C-133.65676785 80.60030111 -130.6437477 80.41897521 -126.94766235 76.83709717 C-124.89573012 74.05309694 -123.12248629 71.26766742 -121.4375 68.25 C-121.0323114 67.58074997 -120.6271228 66.91149994 -120.20965576 66.2219696 C-119.27214989 64.63766139 -118.41334668 63.00748574 -117.5625 61.375 C-117.00820313 60.32570312 -116.45390625 59.27640625 -115.8828125 58.1953125 C-114.40874814 55.34536959 -114.40874814 55.34536959 -113.51953125 52.5859375 C-112.15122506 49.63197685 -110.67766102 48.58802005 -108 46.75 C-107.0203125 46.06808594 -106.040625 45.38617188 -105.03125 44.68359375 C-103.83404212 43.87135013 -102.63605232 43.06025844 -101.4375 42.25 C-99.11691828 40.66887019 -96.79755362 39.08596509 -94.47827148 37.50292969 C-92.8253627 36.37548013 -91.17122555 35.24982935 -89.51586914 34.12597656 C-83.76474907 30.20744205 -78.17838348 26.13352862 -72.6875 21.859375 C-67.7731143 18.34422412 -62.24329722 18.79164759 -56.4375 19.25 C-53.3125 20.375 -53.3125 20.375 -51.4375 22.25 C-50.375 25.0625 -50.375 25.0625 -50.4375 28.25 C-53.11923569 32.86819092 -56.38339955 36.45069825 -60.1875 40.125 C-60.69410156 40.62257812 -61.20070313 41.12015625 -61.72265625 41.6328125 C-62.95635307 42.84323202 -64.19627784 44.04729853 -65.4375 45.25 C-60.5357099 41.76218781 -56.02475267 38.03709255 -51.625 33.9375 C-47.03563951 29.66449837 -42.32053211 25.63523848 -37.42578125 21.7109375 C-35.14952868 19.83637656 -32.93258236 17.93512178 -30.73046875 15.9765625 C-12.95852271 0.17977141 -12.95852271 0.17977141 0 0 Z M-24.4375 42.25 C-24.7675 42.91 -25.0975 43.57 -25.4375 44.25 C-24.4475 43.92 -23.4575 43.59 -22.4375 43.25 C-23.0975 42.92 -23.7575 42.59 -24.4375 42.25 Z M16.5625 44.25 C16.2325 44.91 15.9025 45.57 15.5625 46.25 C16.5525 45.92 17.5425 45.59 18.5625 45.25 C17.9025 44.92 17.2425 44.59 16.5625 44.25 Z M13.5625 46.25 C13.2325 46.91 12.9025 47.57 12.5625 48.25 C13.5525 47.92 14.5425 47.59 15.5625 47.25 C14.9025 46.92 14.2425 46.59 13.5625 46.25 Z " fill="#EB9D6B" transform="translate(513.4375,182.75)"/>
<path d="M0 0 C0.96293976 0.00182281 1.92587952 0.00364563 2.91799927 0.00552368 C18.66752489 0.05551907 33.97874681 0.90523481 49.5625 3.3125 C51.52627611 3.59293318 53.49005641 3.87333798 55.45396423 4.15284729 C58.15136817 4.54357044 60.84463924 4.95816121 63.53713989 5.3812561 C65.44896289 5.67953723 67.36302058 5.96338263 69.27709961 6.24682617 C70.43218018 6.44123291 71.58726074 6.63563965 72.77734375 6.8359375 C73.79948975 7.00013184 74.82163574 7.16432617 75.87475586 7.33349609 C79.28961203 8.57734869 80.54827418 10.35253948 82.5625 13.3125 C77.06371429 12.76982024 71.69955197 12.01643982 66.27856445 10.95410156 C61.38592311 10.00159176 56.474992 9.15559413 51.5625 8.3125 C50.66080078 8.15426758 49.75910156 7.99603516 48.83007812 7.83300781 C32.55911589 5.10936453 16.26604683 4.99619332 -0.1875 4.9375 C-1.26929535 4.92964478 -2.3510907 4.92178955 -3.46566772 4.91369629 C-26.50243792 4.78367446 -48.38942553 7.35934984 -70.3828125 14.34765625 C-73.07748351 15.19878635 -75.78109475 15.98123606 -78.5 16.75 C-95.85601498 22.01190296 -112.73765671 30.83575535 -128.34814453 39.95458984 C-136.62866227 44.70305242 -145.42099691 48.40918799 -154.13769531 52.27246094 C-156.94743448 53.54310731 -159.69626746 54.90090185 -162.4375 56.3125 C-160.90105865 62.39840406 -157.54352494 67.067827 -154.0625 72.1875 C-153.43690186 73.11498047 -152.81130371 74.04246094 -152.16674805 74.99804688 C-143.30287999 88.04192614 -133.81513783 100.44111126 -123.4375 112.3125 C-122.31601563 113.60220703 -122.31601563 113.60220703 -121.171875 114.91796875 C-118.96202886 117.41795656 -116.71377579 119.87283737 -114.4375 122.3125 C-113.95071777 122.83859863 -113.46393555 123.36469727 -112.96240234 123.90673828 C-111.38580345 125.59863849 -109.7897753 127.2699259 -108.1875 128.9375 C-107.69193604 129.47125244 -107.19637207 130.00500488 -106.68579102 130.55493164 C-104.45620463 132.83477279 -102.99724991 134.2178242 -99.8046875 134.7578125 C-97.45570194 134.31592413 -95.87648461 133.74451762 -93.8125 132.5625 C-88.86914668 129.93226295 -83.74258748 128.08086249 -78.4375 126.3125 C-77.76976563 126.08304687 -77.10203125 125.85359375 -76.4140625 125.6171875 C-65.8901757 122.46446192 -55.23406855 124.41490181 -44.9375 127.375 C-42.56438795 128.02168505 -40.19066755 128.66614093 -37.81640625 129.30859375 C-36.60227051 129.64101074 -35.38813477 129.97342773 -34.13720703 130.31591797 C-17.69051555 134.74612746 -1.10359285 138.56243368 15.65063477 141.62744141 C20.70819415 142.55318691 25.70394275 143.57233473 30.69921875 144.79296875 C38.84812826 146.70671861 47.08613576 147.77277128 55.375 148.875 C56.91478581 149.08475662 58.45449979 149.29504125 59.99414062 149.50585938 C63.05247874 149.92345063 66.11201152 150.32994225 69.17285156 150.72875977 C71.92094654 151.08788836 74.65667339 151.47849282 77.39746094 151.89428711 C89.63919506 153.66160209 101.83722189 153.75248722 114.1875 153.75 C115.31334503 153.7510675 116.43919006 153.75213501 117.59915161 153.75323486 C135.75070652 153.72842335 152.89119018 152.69011316 170.5625 148.3125 C172.00689453 147.95961914 172.00689453 147.95961914 173.48046875 147.59960938 C184.78668809 144.73757477 195.21080244 140.63682037 205.5625 135.3125 C206.27164551 134.95704102 206.98079102 134.60158203 207.71142578 134.23535156 C226.5996494 124.76472853 244.30543961 113.47099574 261.5625 101.3125 C263.56248809 99.9166496 265.56248633 98.52081374 267.5625 97.125 C268.89609636 96.18787419 270.22948 95.25044547 271.5625 94.3125 C262.90506556 93.32596821 254.33283804 93.15585854 245.625 93.1875 C244.94408295 93.18938324 244.26316589 93.19126648 243.56161499 93.19320679 C214.68405399 93.28656052 185.09451236 94.66351736 158.5625 107.3125 C157.9427832 107.60527832 157.32306641 107.89805664 156.68457031 108.19970703 C142.95934141 114.72400023 131.03964833 122.35762614 119.5625 132.3125 C118.9025 131.9825 118.2425 131.6525 117.5625 131.3125 C125.53533979 123.5504805 134.28339299 117.39441469 143.5625 111.3125 C144.449375 110.72339844 145.33625 110.13429688 146.25 109.52734375 C179.75054691 88.30655813 226.25852108 81.71118213 264.81640625 89.64453125 C270.41140686 90.64217995 275.90183764 90.5825316 281.5625 90.3125 C280.16658137 93.66036921 278.71436696 95.20616493 275.703125 97.1953125 C274.92501465 97.71722168 274.1469043 98.23913086 273.34521484 98.77685547 C272.50941895 99.32486816 271.67362305 99.87288086 270.8125 100.4375 C269.05894487 101.60795153 267.30634516 102.77983568 265.5546875 103.953125 C264.69456055 104.52740234 263.83443359 105.10167969 262.94824219 105.69335938 C259.87871386 107.77656771 256.91501035 109.97478657 253.9375 112.1875 C230.40750877 129.3271583 203.23652833 144.50119664 175 152.125 C174.33049316 152.30772461 173.66098633 152.49044922 172.97119141 152.67871094 C170.51312609 153.29708496 168.0474203 153.81171835 165.5625 154.3125 C164.32653076 154.57289063 163.09056152 154.83328125 161.81713867 155.1015625 C147.97434279 157.77805637 134.1197813 157.775016 120.06811523 157.70361328 C116.69913802 157.68664263 113.33087836 157.69661705 109.96192646 157.71393013 C92.62032006 157.78948146 75.72521101 156.7969552 58.5625 154.3125 C57.7633316 154.19908264 56.96416321 154.08566528 56.14077759 153.96881104 C51.41247199 153.28798491 46.70571714 152.51193836 42 151.6875 C40.932052 151.50192032 40.932052 151.50192032 39.8425293 151.31259155 C16.62199492 147.25493776 -6.44936747 142.24884105 -29.24609375 136.25390625 C-30.22228668 135.99827408 -31.19847961 135.74264191 -32.20425415 135.47926331 C-36.9282901 134.23874082 -41.64503437 132.97727613 -46.35351562 131.67895508 C-48.06759835 131.22045452 -49.78178584 130.7623454 -51.49609375 130.3046875 C-52.25482285 130.0874855 -53.01355194 129.87028351 -53.79527283 129.64649963 C-61.22362244 127.6953252 -68.4260691 128.32377175 -75.69140625 130.80078125 C-77.00334961 131.24260742 -77.00334961 131.24260742 -78.34179688 131.69335938 C-79.21900391 132.00080078 -80.09621094 132.30824219 -81 132.625 C-81.88107422 132.92083984 -82.76214844 133.21667969 -83.66992188 133.52148438 C-88.77390252 135.26550138 -93.62490885 137.23934298 -98.44506836 139.66479492 C-100.92796298 140.47194104 -102.03182224 140.29576829 -104.4375 139.3125 C-106.1574707 137.94897461 -106.1574707 137.94897461 -107.86328125 136.21484375 C-108.8054248 135.26617432 -108.8054248 135.26617432 -109.76660156 134.29833984 C-110.42112305 133.6223877 -111.07564453 132.94643555 -111.75 132.25 C-112.76465332 131.21673584 -112.76465332 131.21673584 -113.79980469 130.16259766 C-118.17938811 125.67803149 -122.42054536 121.12552537 -126.4375 116.3125 C-127.24058594 115.38695312 -128.04367188 114.46140625 -128.87109375 113.5078125 C-139.61666928 101.08621462 -149.28983803 87.9442803 -158.22314453 74.16796875 C-159.48222525 72.24416226 -160.7679297 70.34023647 -162.05859375 68.4375 C-162.89361929 67.18776057 -163.72826882 65.93776981 -164.5625 64.6875 C-164.95332764 64.11950684 -165.34415527 63.55151367 -165.74682617 62.96630859 C-168.01737106 59.5178895 -168.61564371 57.38570867 -168.4375 53.3125 C-167.42103394 52.89907349 -167.42103394 52.89907349 -166.3840332 52.47729492 C-150.07495194 45.80708556 -134.46525031 38.43811756 -119.01464844 29.98730469 C-97.57308732 18.2927017 -75.28683842 9.67204623 -51.375 4.5625 C-50.45493164 4.36374268 -49.53486328 4.16498535 -48.58691406 3.96020508 C-32.46846793 0.69253608 -16.40591471 -0.06482305 0 0 Z " fill="#EB9E6B" transform="translate(168.4375,242.6875)"/>
<path d="M0 0 C1 1 1 1 1.3984375 3.23046875 C0.83150209 7.17122568 -1.47663213 8.85905894 -4.375 11.3125 C-5.1959314 12.03469727 -5.1959314 12.03469727 -6.03344727 12.77148438 C-10.04818999 16.27381838 -14.18179117 19.62413202 -18.375 22.91015625 C-21.44993473 25.35820696 -24.44537971 27.88945079 -27.4375 30.4375 C-31.42675868 33.83211907 -35.43670426 37.19376664 -39.5 40.5 C-43.53983452 43.7882374 -47.53083277 47.12731461 -51.5 50.5 C-57.27548658 55.40551037 -63.12273541 60.21677168 -69 65 C-71.86379794 67.35093478 -74.72728402 69.70224519 -77.58984375 72.0546875 C-78.38519531 72.69664062 -79.18054688 73.33859375 -80 74 C-80.68191406 74.60070312 -81.36382812 75.20140625 -82.06640625 75.8203125 C-84 77 -84 77 -85.94140625 76.8671875 C-88.42940153 75.81911359 -90.64181758 74.54697894 -92.9375 73.125 C-93.77152344 72.61195313 -94.60554688 72.09890625 -95.46484375 71.5703125 C-97.11848726 70.54602176 -98.76116637 69.50374938 -100.390625 68.44140625 C-103.45363339 66.74941509 -106.45697505 65.79543155 -109.8125 64.8125 C-111.55466797 64.29623047 -111.55466797 64.29623047 -113.33203125 63.76953125 C-114.21246094 63.51558594 -115.09289062 63.26164062 -116 63 C-116 62.01 -116 61.02 -116 60 C-113.59759047 58.20665204 -111.23433572 56.62755727 -108.6875 55.0625 C-107.92566406 54.58232422 -107.16382813 54.10214844 -106.37890625 53.60742188 C-104.75333899 52.5841617 -103.12481708 51.56558305 -101.49365234 50.55126953 C-98.27648128 48.54990817 -95.07450964 46.5249601 -91.87231445 44.49975586 C-90.27928667 43.49265802 -88.68536003 42.48698071 -87.09057617 41.48266602 C-81.86869459 38.19292837 -76.67512459 34.86274174 -71.5 31.5 C-64.92773457 27.23062098 -58.31810488 23.0246718 -51.68139648 18.85620117 C-46.89229962 15.84325763 -42.12732008 12.79536252 -37.37890625 9.71875 C-35.66950211 8.61405614 -33.95988303 7.5096955 -32.25024414 6.40536499 C-30.58940589 5.32992237 -28.93236337 4.24862518 -27.27539062 3.16723633 C-26.25767578 2.51005615 -25.23996094 1.85287598 -24.19140625 1.17578125 C-23.28592041 0.58708252 -22.38043457 -0.00161621 -21.44750977 -0.6081543 C-14.59566221 -4.50465135 -6.62039397 -4.13774623 0 0 Z " fill="#FDC095" transform="translate(591,208)"/>
<path d="M0 0 C10.39992281 10.19886982 18.84181222 21.98811377 27.36621094 33.74902344 C28.80152357 35.72654622 30.24632381 37.69655776 31.6953125 39.6640625 C53.43760802 69.37910642 73.24961631 103.15154134 79 140 C79.13019531 140.75410156 79.26039063 141.50820312 79.39453125 142.28515625 C82.12009573 161.14606246 79.64462601 182.16442493 73 200 C72.34 200.66 71.68 201.32 71 202 C70.31270025 203.58078943 69.62946344 205.16344819 68.96484375 206.75390625 C67.79919299 209.46746572 66.57952825 212.14452995 65.3125 214.8125 C64.87550781 215.74707031 64.43851562 216.68164062 63.98828125 217.64453125 C63.33214844 218.75183594 62.67601562 219.85914063 62 221 C61.32783447 222.28342285 61.32783447 222.28342285 60.64208984 223.59277344 C58.41751399 227.14730671 56.37869134 230.33667461 52.14297485 231.51785278 C46.77087419 232.25223589 41.39514829 231.9107714 36 231.625 C34.35039545 231.57477633 32.70064383 231.52915991 31.05078125 231.48828125 C27.03019156 231.37868975 23.01672788 231.20655642 19 231 C23.20240917 225.96485537 27.61872508 221.32486916 32.3125 216.75 C38.34291085 210.79474823 43.79814358 204.69871715 49 198 C49.61101562 197.27941406 50.22203125 196.55882812 50.8515625 195.81640625 C62.27152581 182.10741946 67.37802144 166.27977965 67.25 148.6875 C67.25773437 147.63626953 67.26546875 146.58503906 67.2734375 145.50195312 C67.24971927 135.8545635 66.08208842 126.56716074 63.0625 117.375 C61.80559591 113.49297518 60.60105923 109.61641629 59.5 105.6875 C58.38188479 101.93425921 56.92274145 98.60878819 55.07910156 95.16088867 C53.98290136 92.96576016 53.10134346 90.76195049 52.23046875 88.46875 C42.09110432 62.88304461 26.38614163 39.00176166 10.29443359 16.8046875 C8.2450012 13.94738757 6.27505551 11.04278164 4.3125 8.125 C3.37857422 6.73667969 3.37857422 6.73667969 2.42578125 5.3203125 C1 3 1 3 0 0 Z " fill="#B10921" transform="translate(330,32)"/>
<path d="M0 0 C0.72896484 -0.020625 1.45792969 -0.04125 2.20898438 -0.0625 C7.54709204 -0.10164286 7.54709204 -0.10164286 10.06640625 1.6171875 C11.0625 3.25 11.0625 3.25 11.0625 5.625 C8.61719869 12.04391593 1.61337352 15.93982012 -3.75 19.8125 C-5.46400336 21.06186686 -7.17753796 22.31187702 -8.890625 23.5625 C-9.74333984 24.18382812 -10.59605469 24.80515625 -11.47460938 25.4453125 C-15.00824319 28.03458898 -18.50473451 30.67179992 -22 33.3125 C-27.65492579 37.57611193 -33.37207077 41.74472279 -39.125 45.875 C-44.27082912 49.57074945 -49.36814065 53.30527784 -54.375 57.1875 C-55.38949219 57.96738281 -56.40398437 58.74726563 -57.44921875 59.55078125 C-59.37551068 61.03373391 -61.28953135 62.5293549 -63.19384766 64.04052734 C-65.67646294 66.00574562 -68.18033719 67.94123618 -70.6875 69.875 C-71.46794678 70.50398193 -72.24839355 71.13296387 -73.05249023 71.78100586 C-78.51303716 75.94244077 -82.1426771 77.12795753 -88.9375 76.25 C-89.66565918 76.17990723 -90.39381836 76.10981445 -91.14404297 76.03759766 C-93.27050998 75.81725572 -95.38252767 75.5437075 -97.5 75.25 C-98.22251953 75.15460938 -98.94503906 75.05921875 -99.68945312 74.9609375 C-101.4394967 74.72914365 -103.18860938 74.49033834 -104.9375 74.25 C-103.40196626 70.06731914 -100.74275201 68.45474988 -97.125 66 C-90.83796014 61.65493837 -84.74537698 57.09612857 -78.6875 52.4375 C-72.1729644 47.44059155 -65.61723071 42.5239044 -58.9375 37.75 C-51.46748158 32.40845025 -44.1557181 26.8790502 -36.8659668 21.29467773 C-30.70125334 16.57806285 -24.49684283 11.919808 -18.25 7.3125 C-17.44183838 6.7151001 -16.63367676 6.1177002 -15.80102539 5.50219727 C-15.05844482 4.95619873 -14.31586426 4.4102002 -13.55078125 3.84765625 C-12.89891846 3.36820557 -12.24705566 2.88875488 -11.57543945 2.39477539 C-7.86362623 -0.19945508 -4.38282431 0.03083781 0 0 Z " fill="#FDC094" transform="translate(549.9375,191.75)"/>
<path d="M0 0 C2 2 2 2 2 5 C0.05078125 6.83984375 0.05078125 6.83984375 -2.6875 8.9375 C-7.14665408 12.4578848 -11.36310963 16.10765488 -15.5 20 C-20.23753019 24.43947596 -25.12130135 28.59150922 -30.1875 32.65625 C-33.39849805 35.33208171 -36.45029137 38.14358276 -39.5 41 C-44.23866464 45.43832674 -49.12119326 49.5914225 -54.1875 53.65625 C-57.39875863 56.33229886 -60.44725999 59.1465367 -63.5 62 C-64.60501031 63.01612377 -65.71047443 64.03175427 -66.81640625 65.046875 C-68.85064482 66.91673682 -70.81746234 68.81401313 -72.77734375 70.765625 C-77.75951348 75.41857647 -81.06732022 77.54956279 -88 77.625 C-90.33714939 77.46506262 -92.67158468 77.25754481 -95 77 C-96.10085938 76.91492188 -97.20171875 76.82984375 -98.3359375 76.7421875 C-100.89786084 76.53802394 -103.44684127 76.29178957 -106 76 C-103.26625185 72.3634792 -100.4454341 69.56054579 -96.875 66.75 C-93.14695303 63.76360694 -89.52632476 60.722137 -86 57.5 C-81.70008209 53.58108748 -77.24080453 49.90829131 -72.71875 46.25 C-70.07852271 44.06498431 -67.5327028 41.80828609 -65 39.5 C-60.70008209 35.58108748 -56.24080453 31.90829131 -51.71875 28.25 C-49.07852271 26.06498431 -46.5327028 23.80828609 -44 21.5 C-39.63685789 17.52530933 -35.13065633 13.77110508 -30.52734375 10.078125 C-28.38052703 8.31289085 -26.38629435 6.4762489 -24.375 4.5625 C-17.88869354 -0.97309488 -8.10981759 -0.86032386 0 0 Z " fill="#FDC094" transform="translate(521,187)"/>
<path d="M0 0 C15.84031277 -0.31680626 31.41390236 1.45945889 43.46875 12.4140625 C46.69608866 15.75666326 46.21854257 19.36168902 46.25 23.75 C46.270625 24.45382812 46.29125 25.15765625 46.3125 25.8828125 C46.34802126 30.66042193 45.57883057 33.83756716 43 38 C38.75700478 41.84521442 35.04310483 42.12749398 29.4609375 42.1328125 C28.15769531 42.13410156 26.85445313 42.13539063 25.51171875 42.13671875 C24.83157715 42.13462402 24.15143555 42.1325293 23.45068359 42.13037109 C21.40324298 42.12507308 19.35602707 42.13029427 17.30859375 42.13671875 C10.45442505 42.12997915 3.79106992 41.94445343 -3 41 C-3.19537335 36.11566627 -2.62186627 32.57938711 -1 28 C0.12210855 22.00762863 0.11655314 16.14555733 0.0625 10.0625 C0.05798828 9.09248047 0.05347656 8.12246094 0.04882812 7.12304688 C0.0371315 4.7486324 0.02074086 2.37434979 0 0 Z " fill="#F8E3D6" transform="translate(452,281)"/>
<path d="M0 0 C1.05445313 0.00386719 2.10890625 0.00773438 3.1953125 0.01171875 C5.875 0.3125 5.875 0.3125 7.875 2.3125 C7.74269383 6.57464867 4.52855412 9.22246258 1.75 12.125 C1.22446533 12.68469482 0.69893066 13.24438965 0.1574707 13.82104492 C-4.7535082 19.01228351 -9.82553826 24.04281225 -14.90234375 29.07104492 C-18.51439232 32.65930547 -21.95675891 36.30448691 -25.234375 40.203125 C-28.58026369 43.93614131 -32.19084602 47.41623406 -35.77197266 50.92236328 C-38.82752036 53.82581873 -38.82752036 53.82581873 -41.125 57.3125 C-49.045 57.3125 -56.965 57.3125 -65.125 57.3125 C-64.24076964 52.89134819 -63.88260024 51.56315019 -61.4375 48.1875 C-59.6705318 45.70385938 -58.17848148 43.43502446 -56.95703125 40.63671875 C-53.32427197 32.32487147 -47.98878027 29.20163079 -40.4296875 24.8515625 C-36.17346526 22.40054573 -32.24140836 19.62860331 -28.3125 16.6875 C-27.38775879 15.99817383 -27.38775879 15.99817383 -26.44433594 15.29492188 C-25.24266714 14.39704214 -24.04211244 13.49766908 -22.84277344 12.59667969 C-20.22720011 10.6413193 -17.58251212 8.72785361 -14.9375 6.8125 C-11.48489079 4.32192598 -11.48489079 4.32192598 -8.20703125 1.61328125 C-5.38293467 -0.1511168 -3.30342909 -0.05275747 0 0 Z " fill="#FDBF94" transform="translate(451.125,205.6875)"/>
<path d="M0 0 C0.33 1.32 0.66 2.64 1 4 C0.34 4 -0.32 4 -1 4 C-1.226875 4.78375 -1.45375 5.5675 -1.6875 6.375 C-2.74283006 9.28972111 -3.88222443 11.7554135 -5.3203125 14.4765625 C-8.18234952 20.1488537 -10.22385258 25.96743015 -12.1875 32 C-12.52974609 33.01578125 -12.87199219 34.0315625 -13.22460938 35.078125 C-17.86938967 49.14775074 -19.17922354 62.60979488 -19.1875 77.375 C-19.19974609 78.51710938 -19.21199219 79.65921875 -19.22460938 80.8359375 C-19.24450748 92.5094899 -17.37338172 102.88691295 -13.5 113.875 C-13.03787109 115.22078125 -13.03787109 115.22078125 -12.56640625 116.59375 C-11.97765544 118.30693906 -11.38543793 120.01894238 -10.7890625 121.72949219 C-9.83389166 124.47797264 -8.91191576 127.23689526 -8 130 C-12.46525736 126.93256233 -14.75219163 123.47888867 -17.0625 118.6875 C-17.40684082 117.98326904 -17.75118164 117.27903809 -18.10595703 116.5534668 C-30.23701814 90.82308967 -29.01207574 61.49460074 -19.77294922 35.08105469 C-14.97491924 22.16304851 -8.11458092 11.08296622 0 0 Z " fill="#B30921" transform="translate(258,124)"/>
<path d="M0 0 C2.375 0.75 2.375 0.75 3.375 1.75 C3.4843557 3.13755629 3.53087094 4.53015854 3.55078125 5.921875 C3.97293089 23.75810486 5.84291671 40.55371075 13.30078125 56.9140625 C14.375 59.75 14.375 59.75 13.375 62.75 C2.17577603 52.74218284 -7.68355022 37.27970314 -8.92578125 22.06640625 C-8.97361728 6.74293117 -8.97361728 6.74293117 -4.18359375 1.03125 C-2.625 -0.25 -2.625 -0.25 0 0 Z " fill="#F8B5BE" transform="translate(249.625,191.25)"/>
<path d="M0 0 C0.66 0 1.32 0 2 0 C8.41527371 27.10072826 2.71259566 56.16445478 -9 81 C-9.74056641 82.57587891 -9.74056641 82.57587891 -10.49609375 84.18359375 C-15.95659648 94.84162883 -23.35375284 104.46767566 -31.375 113.3125 C-31.87467285 113.8698584 -32.3743457 114.4272168 -32.88916016 115.00146484 C-37.24983033 119.67119365 -37.24983033 119.67119365 -41 120 C-40.236875 118.989375 -39.47375 117.97875 -38.6875 116.9375 C-38.14222656 116.20660156 -37.59695313 115.47570312 -37.03515625 114.72265625 C-35.94938535 113.27009902 -34.8621757 111.81857766 -33.76513672 110.37451172 C-12.35008948 82.17449901 -3.85644632 52.48165848 -1.3125 17.4375 C-1.18241002 15.732363 -1.05155395 14.02728427 -0.91992188 12.32226562 C-0.60449569 8.21545794 -0.29927213 4.10801513 0 0 Z " fill="#B40921" transform="translate(303,0)"/>
<path d="M0 0 C0.66 0.66 1.32 1.32 2 2 C1.16339844 2.268125 0.32679688 2.53625 -0.53515625 2.8125 C-18.38304224 8.82109063 -34.02282587 18.35398531 -48 31 C-48.66 30.67 -49.32 30.34 -50 30 C-40.87562281 21.1168924 -13.17952527 -4.39317509 0 0 Z " fill="#EDA270" transform="translate(336,344)"/>
<path d="M0 0 C0.66 0.66 1.32 1.32 2 2 C1.34515625 2.38929688 0.6903125 2.77859375 0.015625 3.1796875 C-7.58978684 7.84176199 -14.28237659 13.17337027 -21 19 C-21.66 18.67 -22.32 18.34 -23 18 C-15.81474334 11.13913416 -8.25943445 5.47608272 0 0 Z " fill="#F2AB7C" transform="translate(309,356)"/>
<path d="M0 0 C0.33 0 0.66 0 1 0 C1.06058594 0.63808594 1.12117187 1.27617187 1.18359375 1.93359375 C1.26738281 2.75988281 1.35117188 3.58617187 1.4375 4.4375 C1.51871094 5.26121094 1.59992188 6.08492187 1.68359375 6.93359375 C1.78930815 8.98662025 1.78930815 8.98662025 3 10 C2.91062197 11.52519276 2.75462854 13.04681929 2.5625 14.5625 C2.46066406 15.38878906 2.35882813 16.21507812 2.25390625 17.06640625 C2.17011719 17.70449219 2.08632812 18.34257812 2 19 C1.67 19 1.34 19 1 19 C-0.15316726 12.65758005 -0.09507063 6.43311296 0 0 Z " fill="#E60A21" transform="translate(238,203)"/>
</svg>
